<svg id="Layer_1" data-name="Layer 1" xmlns="http://www.w3.org/2000/svg" xmlns:xlink="http://www.w3.org/1999/xlink" viewBox="0 0 108.29 125"><defs><style>.cls-1{fill:#fff;}.cls-2{filter:url(#filter-1);}.cls-3{fill:#f8f8f8;}.cls-4{fill:#f26522;}.cls-5{mask:url(#mask);}.cls-6{opacity:0.15;}</style><filter id="filter-1" x="-60" y="-50" width="200" height="200" name="filter-1"><feOffset result="shadowOffsetOuter1" dy="1" in="SourceAlpha"/><feGaussianBlur result="shadowBlurOuter1" stdDeviation="1" in="shadowOffsetOuter1"/><feColorMatrix result="shadowMatrixOuter1" values="0 0 0 0 0 0 0 0 0 0 0 0 0 0 0 0 0 0 0.35 0" in="shadowBlurOuter1"/><feMerge><feMergeNode in="shadowMatrixOuter1"/><feMergeNode in="SourceGraphic"/></feMerge></filter><mask id="mask" x="6" y="9" width="95.85" height="108" maskUnits="userSpaceOnUse"><g transform="translate(-10)"><g id="mask-3"><path id="path-2" class="cls-1" d="M17,36,63.78,9l46.78,27V89.32L63.78,117,17,89.32Z"/></g></g></mask></defs><title>kitty</title><g class="cls-2"><polygon class="cls-3" points="0 31.24 54.15 0 108.29 31.24 108.29 92.97 54.15 125 0 92.97 0 31.24"/></g><g id="Mask-2" data-name="Mask"><path id="path-2-2" data-name="path-2" class="cls-4" d="M17,36,63.78,9l46.78,27V89.32L63.78,117,17,89.32Z" transform="translate(-10)"/></g><g class="cls-5"><g id="Path-295" class="cls-6"><path d="M111.85,36,64,65.35l47.28,24.24Z" transform="translate(-10)"/><path d="M16,36,63.85,65.35,16.57,89.59Z" transform="translate(-10)"/></g></g><g id="layer1"><path id="path5432-0-4-8-3-6-0-8" class="cls-1" d="M43.62,32.27a2.07,2.07,0,0,0-1.86,2.23V53.09a16.69,16.69,0,0,0,.48,14.8,19.48,19.48,0,0,0-2.34.9,33.16,33.16,0,0,0-3.38,1.82l.4.64a29,29,0,0,1,3.29-1.77,17.33,17.33,0,0,1,2.38-.91c.28.49.59,1,.92,1.43a17.49,17.49,0,0,0-2.86,1,33.16,33.16,0,0,0-3.38,1.82l.4.63A29.89,29.89,0,0,1,41,71.73a16.67,16.67,0,0,1,2.8-1l.25,0q.57.73,1.2,1.41a7.17,7.17,0,0,0-.88.17,17.41,17.41,0,0,0-2.93,1.06A33.16,33.16,0,0,0,38,75.11l.4.63A30.93,30.93,0,0,1,41.71,74a17.53,17.53,0,0,1,2.8-1,6.69,6.69,0,0,1,1.39-.19c.38.35.76.7,1.17,1a14.47,14.47,0,0,0-1.56,6.46,14.79,14.79,0,0,0,6.85,12.37,4.06,4.06,0,0,0-1.48,4.08c.68,2.35,3.86,3.6,7.1,2.8h0a7.46,7.46,0,0,0,3.27-1.73,7.52,7.52,0,0,0,3.27,1.73c3.24.8,6.42-.45,7.1-2.79h0a4.07,4.07,0,0,0-1.49-4.1,15.39,15.39,0,0,0,4.11-3.89,20.86,20.86,0,0,1,3.81,2.63c3.16,2.53,7.37,3.22,10.58,1.27s4.89-5.94,4.85-10.85a3,3,0,0,0-3-3h-.09a3,3,0,0,0-2.92,3.07c0,3.56-1.12,5.15-2,5.67s-2,.58-3.73-.82a22.85,22.85,0,0,0-5.12-3.43,13.62,13.62,0,0,0,.32-3,14.26,14.26,0,0,0-1.55-6.45c.4-.33.78-.68,1.15-1A7,7,0,0,1,78,73a17.79,17.79,0,0,1,2.79,1,31.73,31.73,0,0,1,3.3,1.77l.4-.63a34,34,0,0,0-3.39-1.82,17.63,17.63,0,0,0-2.92-1.06,7,7,0,0,0-.87-.17,17.43,17.43,0,0,0,1.2-1.4l.24,0a16.9,16.9,0,0,1,2.79,1,30.64,30.64,0,0,1,3.3,1.76l.4-.63A34,34,0,0,0,81.85,71,16.75,16.75,0,0,0,79,70c.33-.46.64-.94.92-1.42a17.45,17.45,0,0,1,2.39.91,29.66,29.66,0,0,1,3.3,1.77l.4-.64a34,34,0,0,0-3.39-1.82,19.48,19.48,0,0,0-2.34-.9,16.73,16.73,0,0,0,.48-14.82V34.55a2.09,2.09,0,0,0-1.81-2.28h0a1.55,1.55,0,0,0-.87.3L65.54,41.66a23.69,23.69,0,0,0-4.29-.39,22.71,22.71,0,0,0-4.27.41l-12.5-9.11a1.54,1.54,0,0,0-.86-.3Zm.39,4.5,4.26,8.51a20,20,0,0,0-4.26,4V36.77Zm34.48,0V49.35a19.78,19.78,0,0,0-4.26-4.05Zm-28,21h0a8.68,8.68,0,0,1,2.25.25,6.94,6.94,0,0,1,5.54,5.68.69.69,0,0,1-.13.46A7.58,7.58,0,0,1,50.3,66.5c-3-.75-5.26-3-5.54-5.68a.72.72,0,0,1,.13-.47,7.11,7.11,0,0,1,5.57-2.59Zm21.58,0h0a7.11,7.11,0,0,1,5.57,2.59.72.72,0,0,1,.13.47c-.28,2.69-2.55,4.93-5.54,5.68a7.58,7.58,0,0,1-7.82-2.35.64.64,0,0,1-.13-.46A6.94,6.94,0,0,1,69.79,58,8.68,8.68,0,0,1,72,57.76ZM53.38,59.25a2.09,2.09,0,0,0-1.87,2.25h0a2.08,2.08,0,0,0,1.87,2.25h0a2.08,2.08,0,0,0,1.87-2.25h0a2.08,2.08,0,0,0-1.87-2.25Zm15.74,0a2.09,2.09,0,0,0-1.87,2.25h0a2.08,2.08,0,0,0,1.87,2.25h0a2.29,2.29,0,0,0,0-4.5Zm-7.87,9c1.24,0,2.25.67,2.25,1.5s-1,1.5-2.25,1.5S59,70.57,59,69.75h0c0-.83,1-1.5,2.25-1.5Z" transform="translate(-10)"/></g></svg>